# xmcd
#
# Track frame offsets:
#	150
#	18442
#	33862
#	45549
#	58767
#	75097
#	88717
#	107866
#	119150
#	139935
#	155170
#	168995
#
# Disc length: 2428 seconds
#
# Revision: 0
# Processed by: cddbd v1.5.2PL0 Copyright (c) Steve Scherf et al.
# Submitted via: EZCDAudioConverter 5.5.1.1
#
DISCID=9a097a0c
DTITLE=Luísa Sobral - Luísa
DYEAR=2017
DGENRE=
TTITLE0=Alone
TTITLE1=Cupido
TTITLE2=I´ll Be Home With You Tonight
TTITLE3=Learn How To Love
TTITLE4=Jardim Roma
TTITLE5=My Man
TTITLE6=Janie
TTITLE7=Paspalhão
TTITLE8=On My Own
TTITLE9=Je T'Adore
TTITLE10=And So It Goes
TTITLE11=Stormy Weather
EXTD=
EXTT0=
EXTT1=
EXTT2=
EXTT3=
EXTT4=
EXTT5=
EXTT6=
EXTT7=
EXTT8=
EXTT9=
EXTT10=
EXTT11=
PLAYORDER=
